<svg xmlns="http://www.w3.org/2000/svg" width="69" height="50" fill="none" viewBox="0 0 69 50">
  <path fill="#006FB9" fill-rule="evenodd" d="M2.875 0C1.703 0 .749.921.749 2.058V47.94C.75 49.08 1.703 50 2.875 50h63.748c1.172 0 2.126-.921 2.126-2.059V2.058C68.75.92 67.795 0 66.623 0H2.875Z" clip-rule="evenodd"/>
  <path fill="#FFDC46" fill-rule="evenodd" d="M22.161 33.78c-1.46 0-2.646-1.156-2.646-2.583 0-1.426 1.186-2.589 2.646-2.589 1.45 0 2.64 1.163 2.64 2.589 0 1.427-1.19 2.583-2.64 2.583ZM12.035 27c0-1.427 1.187-2.587 2.644-2.587 1.46 0 2.644 1.16 2.644 2.588 0 1.426-1.184 2.586-2.644 2.586-1.457 0-2.644-1.16-2.644-2.586Zm10.126-6.784c1.45 0 2.64 1.161 2.64 2.589 0 1.424-1.19 2.587-2.64 2.587-1.46 0-2.646-1.163-2.646-2.587 0-1.428 1.186-2.589 2.646-2.589Zm39.588 4.26H27.836a5.553 5.553 0 0 0 .254-1.671c0-3.2-2.662-5.805-5.929-5.805-2.792 0-5.133 1.9-5.76 4.443a6.227 6.227 0 0 0-1.722-.248c-3.265 0-5.93 2.604-5.93 5.806 0 3.199 2.665 5.806 5.93 5.806.6 0 1.175-.094 1.723-.25.626 2.544 2.967 4.443 5.76 4.443 3.266 0 5.928-2.604 5.928-5.803 0-.582-.087-1.141-.254-1.67h23v6.963h2.755v-3.483h2.662v3.477H59v-6.957h2.75v-5.051Z" clip-rule="evenodd"/>
</svg>
